<?xml version="1.0" encoding="UTF-8"?>
<svg version="1.1" xmlns="http://www.w3.org/2000/svg" width="500" height="500">
<path d="M0 0 C21.72002841 18.5938755 31.56380209 42.42249276 36.43359375 69.96826172 C39.43299411 86.73105182 45.7828394 101.55976137 58.49609375 113.28076172 C59.23859375 114.10576172 59.98109375 114.93076172 60.74609375 115.78076172 C76.34262326 129.95942491 95.63587033 134.40022874 116.13232422 133.44921875 C134.085905 132.16973406 151.26515888 123.73894932 163.59375 110.62841797 C174.4603992 97.21803569 179.83106522 83.17128037 182.49609375 66.28076172 C182.82609375 64.30076172 183.15609375 62.32076172 183.49609375 60.28076172 C193.39609375 60.28076172 203.29609375 60.28076172 213.49609375 60.28076172 C213.49609375 76.61148714 213.49609375 76.61148714 211.87109375 83.21826172 C211.69215576 83.97276611 211.51321777 84.72727051 211.32885742 85.50463867 C207.18674428 102.12724794 199.56949339 117.63784099 187.63671875 130.03466797 C185.38055626 132.34166098 185.38055626 132.34166098 183.08203125 135.26123047 C168.8669534 151.85980325 144.57258345 162.24176491 123.2265625 164.99951172 C92.60738673 167.30797314 64.9328642 160.62374658 41.04394531 140.61328125 C18.82096153 121.48188606 9.33744047 97.60520641 4.05859375 69.59326172 C1.29118721 55.0952105 -3.15376 43.92112598 -12.50390625 32.28076172 C-13.15488281 31.43255859 -13.80585938 30.58435547 -14.4765625 29.71044922 C-26.11465274 15.76268018 -44.8126033 8.53864161 -62.37890625 6.40576172 C-81.93400799 5.32522375 -101.52394459 11.12519814 -116.25390625 24.28076172 C-116.846875 24.85826172 -117.43984375 25.43576172 -118.05078125 26.03076172 C-119.50390625 27.28076172 -119.50390625 27.28076172 -121.50390625 27.28076172 C-121.88095703 28.11220703 -121.88095703 28.11220703 -122.265625 28.96044922 C-123.71078322 31.6684113 -125.45551464 33.96489815 -127.31640625 36.40576172 C-137.31826946 50.07919496 -140.24389387 63.3306689 -142.50390625 80.28076172 C-152.73390625 80.28076172 -162.96390625 80.28076172 -173.50390625 80.28076172 C-172.79388008 52.58974092 -163.87525381 29.24976149 -145.50390625 8.28076172 C-144.84003906 7.52021484 -144.17617187 6.75966797 -143.4921875 5.97607422 C-130.00868905 -8.45768984 -111.47976137 -17.91491873 -92.50390625 -22.71923828 C-91.63507813 -22.94482422 -90.76625 -23.17041016 -89.87109375 -23.40283203 C-57.97337396 -30.14506143 -24.71865277 -20.65795139 0 0 Z " fill="#29ABE2" transform="translate(229.50390625,233.71923828125)"/>
<path d="M0 0 C0.79390137 0.00563965 1.58780273 0.0112793 2.40576172 0.01708984 C14.14158194 0.25953571 21.21388156 3.9077976 29.8125 11.6875 C30.59625 12.55375 31.38 13.42 32.1875 14.3125 C32.92806641 15.12074219 32.92806641 15.12074219 33.68359375 15.9453125 C40.58514913 24.1721042 42.97074832 34.46574671 42.5625 45.0546875 C41.15037363 57.32253536 36.00909417 67.95830804 26.25 75.75 C15.05594119 83.33659845 3.09987067 85.77943217 -10.125 83.25 C-20.33916584 80.71717093 -28.89166445 75.06824934 -34.8125 66.3125 C-41.51464323 54.50396193 -44.27480753 42.42886795 -40.75 29 C-36.59617027 17.47021093 -28.98266681 8.46481261 -17.96484375 3.13671875 C-11.87083299 0.80307761 -6.45762935 -0.04789511 0 0 Z " fill="#29ABE2" transform="translate(341.8125,246.6875)"/>
<path d="M0 0 C10.2564654 9.47368233 14.41204411 19.84115979 14.99609375 33.84375 C14.45509412 45.19121733 10.09672973 54.48199111 2.37109375 62.734375 C-8.33632554 72.24425398 -20.02591739 74.77234971 -33.91943359 74.03466797 C-44.8091665 73.03727149 -52.99209816 67.34598764 -60.25390625 59.53125 C-67.00115996 51.13466761 -70.62055441 40.84271984 -70.25 30.03125 C-68.85382886 17.62083985 -63.84460552 6.75110953 -54.00390625 -1.15625 C-37.17970734 -12.73793224 -16.10465638 -13.54972872 0 0 Z " fill="#29ABE2" transform="translate(198.00390625,111.15625)"/>
</svg>
